# xmcd CD database file
#
# Track frame offsets:
#	150
#	7985
#	21397
#	31517
#	41562
#	58203
#	69843
#	82136
#	93744
#	106318
#	116190
#	126196
#
# Disc length: 1810 seconds
#
# Revision: 0
# Processed by: cddbd v1.4PL0 Copyright (c) Steve Scherf et al.
# Submitted via: CDex 1.50
#
DISCID=9d07100c
DTITLE=MIKE LAURE - COLECCION DE ORO DISCO 3
DYEAR=2002
DGENRE=Salsa
TTITLE0=COSECHA DE MUJERES
TTITLE1=LA MESERA
TTITLE2=NOCHE DE LUNA EN JALAPA
TTITLE3=RONDANDO TU ESQUINA
TTITLE4=MAZATLAN
TTITLE5=LA YERBITA
TTITLE6=LA TOS
TTITLE7=LA RAJITA DE CANELA
TTITLE8=LA AGARRADERA
TTITLE9=UNA CUMBIA PARA MARIA
TTITLE10=EL SOLTERITO
TTITLE11=EL PULPITO
EXTD=YEAR: 2002
EXTT0=
EXTT1=
EXTT2=
EXTT3=
EXTT4=
EXTT5=
EXTT6=
EXTT7=
EXTT8=
EXTT9=
EXTT10=
EXTT11=
PLAYORDER=
